<svg width="30" height="30" viewBox="0 0 30 30" fill="none" xmlns="http://www.w3.org/2000/svg">
<path fill-rule="evenodd" clip-rule="evenodd" d="M10.3968 0.00531006H19.6031C28.0053 0.00531006 29.9947 1.99473 29.9947 10.3968V19.6032C29.9947 28.0053 28.0053 29.9947 19.6031 29.9947H10.3968C1.99467 29.9947 0.00524902 28.0053 0.00524902 19.6032V10.3968C0.00524902 1.99473 1.99467 0.00531006 10.3968 0.00531006Z" fill="#4680C2"/>
<path fill-rule="evenodd" clip-rule="evenodd" d="M24.5556 10.3333C24.7037 9.86772 24.5556 9.5291 23.8995 9.5291H21.7196C21.1693 9.5291 20.9154 9.8254 20.7672 10.1429C20.7672 10.1429 19.6455 12.8519 18.0794 14.6085C17.5715 15.1164 17.3387 15.2857 17.0635 15.2857C16.9154 15.2857 16.7249 15.1164 16.7249 14.6508V10.3122C16.7249 9.7619 16.5556 9.50793 16.09 9.50793H12.6614C12.3228 9.50793 12.1111 9.7619 12.1111 10.0159C12.1111 10.545 12.8942 10.672 12.9789 12.1534V15.3704C12.9789 16.0688 12.8519 16.1958 12.5768 16.1958C11.836 16.1958 10.0371 13.4656 8.9577 10.3545C8.74606 9.74074 8.53442 9.50793 7.98416 9.50793H5.7831C5.14818 9.50793 5.04236 9.80423 5.04236 10.1217C5.04236 10.6931 5.7831 13.5714 8.4921 17.381C10.291 19.9841 12.8519 21.381 15.1588 21.381C16.5556 21.381 16.7249 21.0635 16.7249 20.5344V18.5662C16.7249 17.9312 16.8519 17.8254 17.2963 17.8254C17.6138 17.8254 18.1852 17.9947 19.4762 19.2434C20.9577 20.7249 21.2117 21.4021 22.0371 21.4021H24.217C24.8519 21.4021 25.1482 21.0847 24.9789 20.4709C24.7884 19.8572 24.0688 18.9683 23.1376 17.9101C22.6297 17.3175 21.8678 16.6614 21.635 16.3439C21.3175 15.9206 21.4022 15.7513 21.635 15.3704C21.6138 15.3704 24.2805 11.6032 24.5556 10.3333Z" fill="white"/>
</svg>
