<svg width="12" height="12" viewBox="0 0 12 12" fill="none" xmlns="http://www.w3.org/2000/svg">
<g clip-path="url(#clip0)">
<path fill-rule="evenodd" clip-rule="evenodd" d="M0.730957 1.39976C0.730957 1.24788 0.851076 1.12476 0.999251 1.12476C1.36614 1.12476 1.65345 1.36645 1.84375 1.59429C1.99104 1.77064 2.10723 1.97032 2.18673 2.1383L11.1085 3.08643C11.1846 3.09451 11.2537 3.13546 11.2984 3.19901C11.3432 3.26256 11.3593 3.34266 11.3429 3.41919L10.3007 8.26265C10.2735 8.38869 10.1646 8.47842 10.0387 8.47842H3.00326V9.55675H10.6674C10.8156 9.55675 10.9357 9.67987 10.9357 9.83175C10.9357 9.96735 10.84 10.08 10.714 10.1026C10.8369 10.2849 10.9088 10.506 10.9088 10.7444C10.9088 11.3688 10.4151 11.8749 9.80595 11.8749C9.19682 11.8749 8.70302 11.3688 8.70302 10.7444C8.70302 10.5078 8.77391 10.2882 8.89512 10.1067H4.26117C4.38238 10.2882 4.45327 10.5078 4.45327 10.7444C4.45327 11.3688 3.95947 11.8749 3.35034 11.8749C2.74122 11.8749 2.24743 11.3688 2.24743 10.7444C2.24743 10.4586 2.35093 10.1975 2.52159 9.99848C2.48714 9.95223 2.46668 9.89442 2.46668 9.83175V8.22107L1.74295 2.46622C1.68378 2.32257 1.57586 2.11928 1.43613 1.95197C1.27993 1.76495 1.12873 1.67476 0.999251 1.67476C0.851076 1.67476 0.730957 1.55163 0.730957 1.39976ZM9.84944 9.6148C9.95236 9.61887 10.0517 9.63743 10.1454 9.66851C10.0625 9.63312 9.97395 9.61398 9.88206 9.61398C9.87114 9.61398 9.86025 9.61425 9.84944 9.6148ZM3.33188 9.61398L3.33714 9.614C3.31479 9.61428 3.29258 9.61521 3.27058 9.61684C3.29081 9.61494 3.31125 9.61398 3.33188 9.61398ZM2.31397 2.70477L2.9709 7.92842H9.82309L10.7541 3.60171L2.31397 2.70477ZM3.35034 11.3249C3.66312 11.3249 3.91668 11.065 3.91668 10.7444C3.91668 10.4238 3.66312 10.1639 3.35034 10.1639C3.03757 10.1639 2.78402 10.4238 2.78402 10.7444C2.78402 11.065 3.03757 11.3249 3.35034 11.3249ZM10.3723 10.7444C10.3723 11.065 10.1187 11.3249 9.80595 11.3249C9.49317 11.3249 9.23961 11.065 9.23961 10.7444C9.23961 10.4238 9.49317 10.1639 9.80595 10.1639C10.1187 10.1639 10.3723 10.4238 10.3723 10.7444Z" fill="black"/>
</g>
<defs>
<clipPath id="clip0">
<rect width="11" height="11" fill="white" transform="translate(0.482788 0.998169)"/>
</clipPath>
</defs>
</svg>
